<?xml version="1.0" encoding="utf-8" standalone="no"?>
<!DOCTYPE svg PUBLIC "-//W3C//DTD SVG 1.1//EN"
  "http://www.w3.org/Graphics/SVG/1.1/DTD/svg11.dtd">
<svg xmlns:xlink="http://www.w3.org/1999/xlink" width="453.6pt" height="338.4pt" viewBox="0 0 453.6 338.4" xmlns="http://www.w3.org/2000/svg" version="1.1">
 <metadata>
  <rdf:RDF xmlns:dc="http://purl.org/dc/elements/1.1/" xmlns:cc="http://creativecommons.org/ns#" xmlns:rdf="http://www.w3.org/1999/02/22-rdf-syntax-ns#">
   <cc:Work>
    <dc:type rdf:resource="http://purl.org/dc/dcmitype/StillImage"/>
    <dc:date>2026-05-27T12:46:09.348970</dc:date>
    <dc:format>image/svg+xml</dc:format>
    <dc:creator>
     <cc:Agent>
      <dc:title>Matplotlib v3.10.5, https://matplotlib.org/</dc:title>
     </cc:Agent>
    </dc:creator>
   </cc:Work>
  </rdf:RDF>
 </metadata>
 <defs>
  <style type="text/css">*{stroke-linejoin: round; stroke-linecap: butt}</style>
 </defs>
 <g id="figure_1">
  <g id="patch_1">
   <path d="M 0 338.4 
L 453.6 338.4 
L 453.6 0 
L 0 0 
z
" style="fill: #ffffff"/>
  </g>
  <g id="axes_1">
   <g id="patch_2">
    <path d="M 7.2 331.2 
L 446.4 331.2 
L 446.4 7.2 
L 7.2 7.2 
z
" style="fill: #ffffff"/>
   </g>
   <g id="PathCollection_1">
    <path d="M 272.70301 160.229556 
C 273.730137 160.229556 274.715334 159.821474 275.441623 159.095185 
C 276.167911 158.368897 276.575993 157.3837 276.575993 156.356573 
C 276.575993 155.329445 276.167911 154.344248 275.441623 153.61796 
C 274.715334 152.891671 273.730137 152.483589 272.70301 152.483589 
C 271.675883 152.483589 270.690686 152.891671 269.964397 153.61796 
C 269.238109 154.344248 268.830027 155.329445 268.830027 156.356573 
C 268.830027 157.3837 269.238109 158.368897 269.964397 159.095185 
C 270.690686 159.821474 271.675883 160.229556 272.70301 160.229556 
z
" clip-path="url(#p0d32de99aa)" style="fill: #ff0000"/>
   </g>
   <g id="PathCollection_2">
    <path d="M 272.70301 254.652796 
C 273.730137 254.652796 274.715334 254.244714 275.441623 253.518426 
C 276.167911 252.792137 276.575993 251.80694 276.575993 250.779813 
C 276.575993 249.752686 276.167911 248.767489 275.441623 248.0412 
C 274.715334 247.314912 273.730137 246.90683 272.70301 246.90683 
C 271.675883 246.90683 270.690686 247.314912 269.964397 248.0412 
C 269.238109 248.767489 268.830027 249.752686 268.830027 250.779813 
C 268.830027 251.80694 269.238109 252.792137 269.964397 253.518426 
C 270.690686 254.244714 271.675883 254.652796 272.70301 254.652796 
z
" clip-path="url(#p0d32de99aa)" style="fill: #008000"/>
   </g>
   <g id="matplotlib.axis_1">
    <g id="xtick_1">
     <g id="line2d_1">
      <defs>
       <path id="ma2e6456c58" d="M 0 0 
L 0 3.5 
" style="stroke: #000000; stroke-width: 0.8"/>
      </defs>
      <g>
       <use xlink:href="#ma2e6456c58" x="52.368562" y="156.356573" style="stroke: #000000; stroke-width: 0.8"/>
      </g>
     </g>
     <g id="text_1">
      <!-- −1 -->
      <g transform="translate(44.997468 170.95501) scale(0.1 -0.1)">
       <defs>
        <path id="DejaVuSans-2212" d="M 678 2272 
L 4684 2272 
L 4684 1741 
L 678 1741 
L 678 2272 
z
" transform="scale(0.015625)"/>
        <path id="DejaVuSans-31" d="M 794 531 
L 1825 531 
L 1825 4091 
L 703 3866 
L 703 4441 
L 1819 4666 
L 2450 4666 
L 2450 531 
L 3481 531 
L 3481 0 
L 794 0 
L 794 531 
z
" transform="scale(0.015625)"/>
       </defs>
       <use xlink:href="#DejaVuSans-2212"/>
       <use xlink:href="#DejaVuSans-31" transform="translate(83.789062 0)"/>
      </g>
     </g>
    </g>
    <g id="xtick_2">
     <g id="line2d_2">
      <g>
       <use xlink:href="#ma2e6456c58" x="125.813378" y="156.356573" style="stroke: #000000; stroke-width: 0.8"/>
      </g>
     </g>
    </g>
    <g id="xtick_3">
     <g id="line2d_3">
      <g>
       <use xlink:href="#ma2e6456c58" x="199.258194" y="156.356573" style="stroke: #000000; stroke-width: 0.8"/>
      </g>
     </g>
     <g id="text_2">
      <!-- 1 -->
      <g transform="translate(196.076944 170.95501) scale(0.1 -0.1)">
       <use xlink:href="#DejaVuSans-31"/>
      </g>
     </g>
    </g>
    <g id="xtick_4">
     <g id="line2d_4">
      <g>
       <use xlink:href="#ma2e6456c58" x="272.70301" y="156.356573" style="stroke: #000000; stroke-width: 0.8"/>
      </g>
     </g>
     <g id="text_3">
      <!-- 2 -->
      <g transform="translate(269.52176 170.95501) scale(0.1 -0.1)">
       <defs>
        <path id="DejaVuSans-32" d="M 1228 531 
L 3431 531 
L 3431 0 
L 469 0 
L 469 531 
Q 828 903 1448 1529 
Q 2069 2156 2228 2338 
Q 2531 2678 2651 2914 
Q 2772 3150 2772 3378 
Q 2772 3750 2511 3984 
Q 2250 4219 1831 4219 
Q 1534 4219 1204 4116 
Q 875 4013 500 3803 
L 500 4441 
Q 881 4594 1212 4672 
Q 1544 4750 1819 4750 
Q 2544 4750 2975 4387 
Q 3406 4025 3406 3419 
Q 3406 3131 3298 2873 
Q 3191 2616 2906 2266 
Q 2828 2175 2409 1742 
Q 1991 1309 1228 531 
z
" transform="scale(0.015625)"/>
       </defs>
       <use xlink:href="#DejaVuSans-32"/>
      </g>
     </g>
    </g>
    <g id="xtick_5">
     <g id="line2d_5">
      <g>
       <use xlink:href="#ma2e6456c58" x="346.147826" y="156.356573" style="stroke: #000000; stroke-width: 0.8"/>
      </g>
     </g>
     <g id="text_4">
      <!-- 3 -->
      <g transform="translate(342.966576 170.95501) scale(0.1 -0.1)">
       <defs>
        <path id="DejaVuSans-33" d="M 2597 2516 
Q 3050 2419 3304 2112 
Q 3559 1806 3559 1356 
Q 3559 666 3084 287 
Q 2609 -91 1734 -91 
Q 1441 -91 1130 -33 
Q 819 25 488 141 
L 488 750 
Q 750 597 1062 519 
Q 1375 441 1716 441 
Q 2309 441 2620 675 
Q 2931 909 2931 1356 
Q 2931 1769 2642 2001 
Q 2353 2234 1838 2234 
L 1294 2234 
L 1294 2753 
L 1863 2753 
Q 2328 2753 2575 2939 
Q 2822 3125 2822 3475 
Q 2822 3834 2567 4026 
Q 2313 4219 1838 4219 
Q 1578 4219 1281 4162 
Q 984 4106 628 3988 
L 628 4550 
Q 988 4650 1302 4700 
Q 1616 4750 1894 4750 
Q 2613 4750 3031 4423 
Q 3450 4097 3450 3541 
Q 3450 3153 3228 2886 
Q 3006 2619 2597 2516 
z
" transform="scale(0.015625)"/>
       </defs>
       <use xlink:href="#DejaVuSans-33"/>
      </g>
     </g>
    </g>
    <g id="xtick_6">
     <g id="line2d_6">
      <g>
       <use xlink:href="#ma2e6456c58" x="419.592642" y="156.356573" style="stroke: #000000; stroke-width: 0.8"/>
      </g>
     </g>
     <g id="text_5">
      <!-- 4 -->
      <g transform="translate(416.411392 170.95501) scale(0.1 -0.1)">
       <defs>
        <path id="DejaVuSans-34" d="M 2419 4116 
L 825 1625 
L 2419 1625 
L 2419 4116 
z
M 2253 4666 
L 3047 4666 
L 3047 1625 
L 3713 1625 
L 3713 1100 
L 3047 1100 
L 3047 0 
L 2419 0 
L 2419 1100 
L 313 1100 
L 313 1709 
L 2253 4666 
z
" transform="scale(0.015625)"/>
       </defs>
       <use xlink:href="#DejaVuSans-34"/>
      </g>
     </g>
    </g>
    <g id="xtick_7">
     <g id="line2d_7">
      <defs>
       <path id="ma287ac8782" d="M 0 0 
L 0 2 
" style="stroke: #000000; stroke-width: 0.6"/>
      </defs>
      <g>
       <use xlink:href="#ma287ac8782" x="8.301672" y="156.356573" style="stroke: #000000; stroke-width: 0.6"/>
      </g>
     </g>
    </g>
    <g id="xtick_8">
     <g id="line2d_8">
      <g>
       <use xlink:href="#ma287ac8782" x="22.990635" y="156.356573" style="stroke: #000000; stroke-width: 0.6"/>
      </g>
     </g>
    </g>
    <g id="xtick_9">
     <g id="line2d_9">
      <g>
       <use xlink:href="#ma287ac8782" x="37.679599" y="156.356573" style="stroke: #000000; stroke-width: 0.6"/>
      </g>
     </g>
    </g>
    <g id="xtick_10">
     <g id="line2d_10">
      <g>
       <use xlink:href="#ma287ac8782" x="67.057525" y="156.356573" style="stroke: #000000; stroke-width: 0.6"/>
      </g>
     </g>
    </g>
    <g id="xtick_11">
     <g id="line2d_11">
      <g>
       <use xlink:href="#ma287ac8782" x="81.746488" y="156.356573" style="stroke: #000000; stroke-width: 0.6"/>
      </g>
     </g>
    </g>
    <g id="xtick_12">
     <g id="line2d_12">
      <g>
       <use xlink:href="#ma287ac8782" x="96.435452" y="156.356573" style="stroke: #000000; stroke-width: 0.6"/>
      </g>
     </g>
    </g>
    <g id="xtick_13">
     <g id="line2d_13">
      <g>
       <use xlink:href="#ma287ac8782" x="111.124415" y="156.356573" style="stroke: #000000; stroke-width: 0.6"/>
      </g>
     </g>
    </g>
    <g id="xtick_14">
     <g id="line2d_14">
      <g>
       <use xlink:href="#ma287ac8782" x="140.502341" y="156.356573" style="stroke: #000000; stroke-width: 0.6"/>
      </g>
     </g>
    </g>
    <g id="xtick_15">
     <g id="line2d_15">
      <g>
       <use xlink:href="#ma287ac8782" x="155.191304" y="156.356573" style="stroke: #000000; stroke-width: 0.6"/>
      </g>
     </g>
    </g>
    <g id="xtick_16">
     <g id="line2d_16">
      <g>
       <use xlink:href="#ma287ac8782" x="169.880268" y="156.356573" style="stroke: #000000; stroke-width: 0.6"/>
      </g>
     </g>
    </g>
    <g id="xtick_17">
     <g id="line2d_17">
      <g>
       <use xlink:href="#ma287ac8782" x="184.569231" y="156.356573" style="stroke: #000000; stroke-width: 0.6"/>
      </g>
     </g>
    </g>
    <g id="xtick_18">
     <g id="line2d_18">
      <g>
       <use xlink:href="#ma287ac8782" x="213.947157" y="156.356573" style="stroke: #000000; stroke-width: 0.6"/>
      </g>
     </g>
    </g>
    <g id="xtick_19">
     <g id="line2d_19">
      <g>
       <use xlink:href="#ma287ac8782" x="228.63612" y="156.356573" style="stroke: #000000; stroke-width: 0.6"/>
      </g>
     </g>
    </g>
    <g id="xtick_20">
     <g id="line2d_20">
      <g>
       <use xlink:href="#ma287ac8782" x="243.325084" y="156.356573" style="stroke: #000000; stroke-width: 0.6"/>
      </g>
     </g>
    </g>
    <g id="xtick_21">
     <g id="line2d_21">
      <g>
       <use xlink:href="#ma287ac8782" x="258.014047" y="156.356573" style="stroke: #000000; stroke-width: 0.6"/>
      </g>
     </g>
    </g>
    <g id="xtick_22">
     <g id="line2d_22">
      <g>
       <use xlink:href="#ma287ac8782" x="287.391973" y="156.356573" style="stroke: #000000; stroke-width: 0.6"/>
      </g>
     </g>
    </g>
    <g id="xtick_23">
     <g id="line2d_23">
      <g>
       <use xlink:href="#ma287ac8782" x="302.080936" y="156.356573" style="stroke: #000000; stroke-width: 0.6"/>
      </g>
     </g>
    </g>
    <g id="xtick_24">
     <g id="line2d_24">
      <g>
       <use xlink:href="#ma287ac8782" x="316.7699" y="156.356573" style="stroke: #000000; stroke-width: 0.6"/>
      </g>
     </g>
    </g>
    <g id="xtick_25">
     <g id="line2d_25">
      <g>
       <use xlink:href="#ma287ac8782" x="331.458863" y="156.356573" style="stroke: #000000; stroke-width: 0.6"/>
      </g>
     </g>
    </g>
    <g id="xtick_26">
     <g id="line2d_26">
      <g>
       <use xlink:href="#ma287ac8782" x="360.836789" y="156.356573" style="stroke: #000000; stroke-width: 0.6"/>
      </g>
     </g>
    </g>
    <g id="xtick_27">
     <g id="line2d_27">
      <g>
       <use xlink:href="#ma287ac8782" x="375.525753" y="156.356573" style="stroke: #000000; stroke-width: 0.6"/>
      </g>
     </g>
    </g>
    <g id="xtick_28">
     <g id="line2d_28">
      <g>
       <use xlink:href="#ma287ac8782" x="390.214716" y="156.356573" style="stroke: #000000; stroke-width: 0.6"/>
      </g>
     </g>
    </g>
    <g id="xtick_29">
     <g id="line2d_29">
      <g>
       <use xlink:href="#ma287ac8782" x="404.903679" y="156.356573" style="stroke: #000000; stroke-width: 0.6"/>
      </g>
     </g>
    </g>
    <g id="xtick_30">
     <g id="line2d_30">
      <g>
       <use xlink:href="#ma287ac8782" x="434.281605" y="156.356573" style="stroke: #000000; stroke-width: 0.6"/>
      </g>
     </g>
    </g>
   </g>
   <g id="matplotlib.axis_2">
    <g id="ytick_1">
     <g id="line2d_31">
      <defs>
       <path id="mbeb7757e42" d="M 0 0 
L -3.5 0 
" style="stroke: #000000; stroke-width: 0.8"/>
      </defs>
      <g>
       <use xlink:href="#mbeb7757e42" x="125.813378" y="291.246916" style="stroke: #000000; stroke-width: 0.8"/>
      </g>
     </g>
     <g id="text_6">
      <!-- −20 -->
      <g transform="translate(97.70869 295.046135) scale(0.1 -0.1)">
       <defs>
        <path id="DejaVuSans-30" d="M 2034 4250 
Q 1547 4250 1301 3770 
Q 1056 3291 1056 2328 
Q 1056 1369 1301 889 
Q 1547 409 2034 409 
Q 2525 409 2770 889 
Q 3016 1369 3016 2328 
Q 3016 3291 2770 3770 
Q 2525 4250 2034 4250 
z
M 2034 4750 
Q 2819 4750 3233 4129 
Q 3647 3509 3647 2328 
Q 3647 1150 3233 529 
Q 2819 -91 2034 -91 
Q 1250 -91 836 529 
Q 422 1150 422 2328 
Q 422 3509 836 4129 
Q 1250 4750 2034 4750 
z
" transform="scale(0.015625)"/>
       </defs>
       <use xlink:href="#DejaVuSans-2212"/>
       <use xlink:href="#DejaVuSans-32" transform="translate(83.789062 0)"/>
       <use xlink:href="#DejaVuSans-30" transform="translate(147.412109 0)"/>
      </g>
     </g>
    </g>
    <g id="ytick_2">
     <g id="line2d_32">
      <g>
       <use xlink:href="#mbeb7757e42" x="125.813378" y="223.801744" style="stroke: #000000; stroke-width: 0.8"/>
      </g>
     </g>
     <g id="text_7">
      <!-- −10 -->
      <g transform="translate(97.70869 227.600963) scale(0.1 -0.1)">
       <use xlink:href="#DejaVuSans-2212"/>
       <use xlink:href="#DejaVuSans-31" transform="translate(83.789062 0)"/>
       <use xlink:href="#DejaVuSans-30" transform="translate(147.412109 0)"/>
      </g>
     </g>
    </g>
    <g id="ytick_3">
     <g id="line2d_33">
      <g>
       <use xlink:href="#mbeb7757e42" x="125.813378" y="156.356573" style="stroke: #000000; stroke-width: 0.8"/>
      </g>
     </g>
    </g>
    <g id="ytick_4">
     <g id="line2d_34">
      <g>
       <use xlink:href="#mbeb7757e42" x="125.813378" y="88.911401" style="stroke: #000000; stroke-width: 0.8"/>
      </g>
     </g>
     <g id="text_8">
      <!-- 10 -->
      <g transform="translate(106.088378 92.71062) scale(0.1 -0.1)">
       <use xlink:href="#DejaVuSans-31"/>
       <use xlink:href="#DejaVuSans-30" transform="translate(63.623047 0)"/>
      </g>
     </g>
    </g>
    <g id="ytick_5">
     <g id="line2d_35">
      <g>
       <use xlink:href="#mbeb7757e42" x="125.813378" y="21.466229" style="stroke: #000000; stroke-width: 0.8"/>
      </g>
     </g>
     <g id="text_9">
      <!-- 20 -->
      <g transform="translate(106.088378 25.265448) scale(0.1 -0.1)">
       <use xlink:href="#DejaVuSans-32"/>
       <use xlink:href="#DejaVuSans-30" transform="translate(63.623047 0)"/>
      </g>
     </g>
    </g>
    <g id="ytick_6">
     <g id="line2d_36">
      <defs>
       <path id="m75989a3140" d="M 0 0 
L -2 0 
" style="stroke: #000000; stroke-width: 0.6"/>
      </defs>
      <g>
       <use xlink:href="#m75989a3140" x="125.813378" y="318.224985" style="stroke: #000000; stroke-width: 0.6"/>
      </g>
     </g>
    </g>
    <g id="ytick_7">
     <g id="line2d_37">
      <g>
       <use xlink:href="#m75989a3140" x="125.813378" y="304.73595" style="stroke: #000000; stroke-width: 0.6"/>
      </g>
     </g>
    </g>
    <g id="ytick_8">
     <g id="line2d_38">
      <g>
       <use xlink:href="#m75989a3140" x="125.813378" y="277.757882" style="stroke: #000000; stroke-width: 0.6"/>
      </g>
     </g>
    </g>
    <g id="ytick_9">
     <g id="line2d_39">
      <g>
       <use xlink:href="#m75989a3140" x="125.813378" y="264.268847" style="stroke: #000000; stroke-width: 0.6"/>
      </g>
     </g>
    </g>
    <g id="ytick_10">
     <g id="line2d_40">
      <g>
       <use xlink:href="#m75989a3140" x="125.813378" y="250.779813" style="stroke: #000000; stroke-width: 0.6"/>
      </g>
     </g>
    </g>
    <g id="ytick_11">
     <g id="line2d_41">
      <g>
       <use xlink:href="#m75989a3140" x="125.813378" y="237.290779" style="stroke: #000000; stroke-width: 0.6"/>
      </g>
     </g>
    </g>
    <g id="ytick_12">
     <g id="line2d_42">
      <g>
       <use xlink:href="#m75989a3140" x="125.813378" y="210.31271" style="stroke: #000000; stroke-width: 0.6"/>
      </g>
     </g>
    </g>
    <g id="ytick_13">
     <g id="line2d_43">
      <g>
       <use xlink:href="#m75989a3140" x="125.813378" y="196.823676" style="stroke: #000000; stroke-width: 0.6"/>
      </g>
     </g>
    </g>
    <g id="ytick_14">
     <g id="line2d_44">
      <g>
       <use xlink:href="#m75989a3140" x="125.813378" y="183.334641" style="stroke: #000000; stroke-width: 0.6"/>
      </g>
     </g>
    </g>
    <g id="ytick_15">
     <g id="line2d_45">
      <g>
       <use xlink:href="#m75989a3140" x="125.813378" y="169.845607" style="stroke: #000000; stroke-width: 0.6"/>
      </g>
     </g>
    </g>
    <g id="ytick_16">
     <g id="line2d_46">
      <g>
       <use xlink:href="#m75989a3140" x="125.813378" y="142.867538" style="stroke: #000000; stroke-width: 0.6"/>
      </g>
     </g>
    </g>
    <g id="ytick_17">
     <g id="line2d_47">
      <g>
       <use xlink:href="#m75989a3140" x="125.813378" y="129.378504" style="stroke: #000000; stroke-width: 0.6"/>
      </g>
     </g>
    </g>
    <g id="ytick_18">
     <g id="line2d_48">
      <g>
       <use xlink:href="#m75989a3140" x="125.813378" y="115.88947" style="stroke: #000000; stroke-width: 0.6"/>
      </g>
     </g>
    </g>
    <g id="ytick_19">
     <g id="line2d_49">
      <g>
       <use xlink:href="#m75989a3140" x="125.813378" y="102.400435" style="stroke: #000000; stroke-width: 0.6"/>
      </g>
     </g>
    </g>
    <g id="ytick_20">
     <g id="line2d_50">
      <g>
       <use xlink:href="#m75989a3140" x="125.813378" y="75.422367" style="stroke: #000000; stroke-width: 0.6"/>
      </g>
     </g>
    </g>
    <g id="ytick_21">
     <g id="line2d_51">
      <g>
       <use xlink:href="#m75989a3140" x="125.813378" y="61.933332" style="stroke: #000000; stroke-width: 0.6"/>
      </g>
     </g>
    </g>
    <g id="ytick_22">
     <g id="line2d_52">
      <g>
       <use xlink:href="#m75989a3140" x="125.813378" y="48.444298" style="stroke: #000000; stroke-width: 0.6"/>
      </g>
     </g>
    </g>
    <g id="ytick_23">
     <g id="line2d_53">
      <g>
       <use xlink:href="#m75989a3140" x="125.813378" y="34.955263" style="stroke: #000000; stroke-width: 0.6"/>
      </g>
     </g>
    </g>
    <g id="ytick_24">
     <g id="line2d_54">
      <g>
       <use xlink:href="#m75989a3140" x="125.813378" y="7.977195" style="stroke: #000000; stroke-width: 0.6"/>
      </g>
     </g>
    </g>
   </g>
   <g id="line2d_55">
    <path d="M 15.646154 17.672438 
L 19.060805 29.919585 
L 22.414192 41.092023 
L 25.628842 51.041749 
L 28.923552 60.501182 
L 32.127633 69.016041 
L 35.213505 76.607932 
L 38.44406 83.945547 
L 41.384867 90.10762 
L 44.564279 96.241766 
L 47.495363 101.434404 
L 50.607287 106.486554 
L 53.504147 110.784641 
L 56.257424 114.526438 
L 59.077571 118.03012 
L 61.887424 121.207301 
L 64.940129 124.324164 
L 67.98932 127.110124 
L 70.979355 129.544584 
L 74.069943 131.771994 
L 77.35504 133.840619 
L 80.719224 135.664686 
L 83.904596 137.140142 
L 86.933581 138.335667 
L 90.062437 139.377229 
L 93.951259 140.425965 
L 97.733397 141.215718 
L 101.614222 141.823048 
L 106.666672 142.358407 
L 112.727579 142.708151 
L 119.465171 142.849741 
L 140.452365 143.070522 
L 145.730683 143.369106 
L 151.22275 143.888059 
L 155.986093 144.545978 
L 160.848756 145.446808 
L 165.292513 146.494607 
L 170.106272 147.892761 
L 174.561875 149.447306 
L 178.850898 151.192981 
L 183.26836 153.257112 
L 187.192198 155.324118 
L 191.499927 157.852203 
L 195.89389 160.714391 
L 200.509185 164.031869 
L 204.858488 167.4504 
L 209.283007 171.217396 
L 213.769946 175.331712 
L 218.345135 179.825602 
L 223.220384 184.936035 
L 228.40657 190.721528 
L 233.576719 196.827239 
L 239.002826 203.571545 
L 244.360305 210.536798 
L 251.594457 220.359528 
L 259.417227 231.41152 
L 269.897181 246.658706 
L 285.94695 270.073777 
L 293.359311 280.487677 
L 299.401513 288.594128 
L 304.524626 295.103258 
L 309.145626 300.620258 
L 313.408089 305.358567 
L 317.517391 309.561683 
L 320.918999 312.737576 
L 324.41508 315.685847 
L 327.52912 318.018787 
L 330.179318 319.770078 
L 333.015484 321.389684 
L 335.833768 322.722113 
L 338.283523 323.642915 
L 340.886419 324.366137 
L 343.138247 324.769345 
L 345.231967 324.950728 
L 347.686414 324.915727 
L 350.032347 324.62186 
L 352.26485 324.09587 
L 354.274626 323.408976 
L 356.607324 322.348687 
L 358.870452 321.039997 
L 361.077439 319.488303 
L 363.357548 317.589232 
L 365.419108 315.604408 
L 367.804016 312.98009 
L 370.087311 310.126587 
L 372.463389 306.790673 
L 374.908985 302.953479 
L 377.557968 298.318853 
L 380.013074 293.563776 
L 382.601458 288.054992 
L 385.311385 281.723681 
L 387.933069 275.030656 
L 390.77018 267.136473 
L 393.719784 258.186302 
L 396.653131 248.507359 
L 399.609518 237.93932 
L 402.561738 226.543198 
L 405.568629 214.040221 
L 408.714051 199.960278 
L 411.962115 184.309118 
L 415.090124 168.131552 
L 418.418424 149.686219 
L 421.469984 131.621169 
L 424.884327 110.056279 
L 428.357378 86.606108 
L 431.816052 61.682811 
L 435.363851 34.43349 
L 437.953846 13.430769 
L 437.953846 13.430769 
" clip-path="url(#p0d32de99aa)" style="fill: none; stroke: #0000ff; stroke-linecap: square"/>
   </g>
   <g id="patch_3">
    <path d="M 272.70301 156.356573 
Q 272.70301 203.568193 272.70301 248.543745 
" clip-path="url(#p0d32de99aa)" style="fill: none; stroke-dasharray: 2,3.3; stroke-dashoffset: 0; stroke: #008000; stroke-width: 2; stroke-linecap: round"/>
    <path d="M 277.70301 238.543745 
L 272.70301 248.543745 
L 267.70301 238.543745 
z
" clip-path="url(#p0d32de99aa)" style="fill: #008000; stroke: #008000; stroke-width: 2; stroke-linecap: round"/>
   </g>
   <g id="line2d_56">
    <path d="M 7.2 331.714019 
L 446.4 331.714019 
" clip-path="url(#p0d32de99aa)" style="fill: none; stroke-dasharray: 0.5,0.825; stroke-dashoffset: 0; stroke: #000000; stroke-width: 0.5"/>
   </g>
   <g id="line2d_57">
    <path d="M 7.2 318.224985 
L 446.4 318.224985 
" clip-path="url(#p0d32de99aa)" style="fill: none; stroke-dasharray: 0.5,0.825; stroke-dashoffset: 0; stroke: #000000; stroke-width: 0.5"/>
   </g>
   <g id="line2d_58">
    <path d="M 7.2 304.73595 
L 446.4 304.73595 
" clip-path="url(#p0d32de99aa)" style="fill: none; stroke-dasharray: 0.5,0.825; stroke-dashoffset: 0; stroke: #000000; stroke-width: 0.5"/>
   </g>
   <g id="line2d_59">
    <path d="M 7.2 291.246916 
L 446.4 291.246916 
" clip-path="url(#p0d32de99aa)" style="fill: none; stroke-dasharray: 0.5,0.825; stroke-dashoffset: 0; stroke: #000000; stroke-width: 0.5"/>
   </g>
   <g id="line2d_60">
    <path d="M 7.2 277.757882 
L 446.4 277.757882 
" clip-path="url(#p0d32de99aa)" style="fill: none; stroke-dasharray: 0.5,0.825; stroke-dashoffset: 0; stroke: #000000; stroke-width: 0.5"/>
   </g>
   <g id="line2d_61">
    <path d="M 7.2 264.268847 
L 446.4 264.268847 
" clip-path="url(#p0d32de99aa)" style="fill: none; stroke-dasharray: 0.5,0.825; stroke-dashoffset: 0; stroke: #000000; stroke-width: 0.5"/>
   </g>
   <g id="line2d_62">
    <path d="M 7.2 250.779813 
L 446.4 250.779813 
" clip-path="url(#p0d32de99aa)" style="fill: none; stroke-dasharray: 0.5,0.825; stroke-dashoffset: 0; stroke: #000000; stroke-width: 0.5"/>
   </g>
   <g id="line2d_63">
    <path d="M 7.2 237.290779 
L 446.4 237.290779 
" clip-path="url(#p0d32de99aa)" style="fill: none; stroke-dasharray: 0.5,0.825; stroke-dashoffset: 0; stroke: #000000; stroke-width: 0.5"/>
   </g>
   <g id="line2d_64">
    <path d="M 7.2 223.801744 
L 446.4 223.801744 
" clip-path="url(#p0d32de99aa)" style="fill: none; stroke-dasharray: 0.5,0.825; stroke-dashoffset: 0; stroke: #000000; stroke-width: 0.5"/>
   </g>
   <g id="line2d_65">
    <path d="M 7.2 210.31271 
L 446.4 210.31271 
" clip-path="url(#p0d32de99aa)" style="fill: none; stroke-dasharray: 0.5,0.825; stroke-dashoffset: 0; stroke: #000000; stroke-width: 0.5"/>
   </g>
   <g id="line2d_66">
    <path d="M 7.2 196.823676 
L 446.4 196.823676 
" clip-path="url(#p0d32de99aa)" style="fill: none; stroke-dasharray: 0.5,0.825; stroke-dashoffset: 0; stroke: #000000; stroke-width: 0.5"/>
   </g>
   <g id="line2d_67">
    <path d="M 7.2 183.334641 
L 446.4 183.334641 
" clip-path="url(#p0d32de99aa)" style="fill: none; stroke-dasharray: 0.5,0.825; stroke-dashoffset: 0; stroke: #000000; stroke-width: 0.5"/>
   </g>
   <g id="line2d_68">
    <path d="M 7.2 169.845607 
L 446.4 169.845607 
" clip-path="url(#p0d32de99aa)" style="fill: none; stroke-dasharray: 0.5,0.825; stroke-dashoffset: 0; stroke: #000000; stroke-width: 0.5"/>
   </g>
   <g id="line2d_69">
    <path d="M 7.2 156.356573 
L 446.4 156.356573 
" clip-path="url(#p0d32de99aa)" style="fill: none; stroke-dasharray: 0.5,0.825; stroke-dashoffset: 0; stroke: #000000; stroke-width: 0.5"/>
   </g>
   <g id="line2d_70">
    <path d="M 7.2 142.867538 
L 446.4 142.867538 
" clip-path="url(#p0d32de99aa)" style="fill: none; stroke-dasharray: 0.5,0.825; stroke-dashoffset: 0; stroke: #000000; stroke-width: 0.5"/>
   </g>
   <g id="line2d_71">
    <path d="M 7.2 129.378504 
L 446.4 129.378504 
" clip-path="url(#p0d32de99aa)" style="fill: none; stroke-dasharray: 0.5,0.825; stroke-dashoffset: 0; stroke: #000000; stroke-width: 0.5"/>
   </g>
   <g id="line2d_72">
    <path d="M 7.2 115.88947 
L 446.4 115.88947 
" clip-path="url(#p0d32de99aa)" style="fill: none; stroke-dasharray: 0.5,0.825; stroke-dashoffset: 0; stroke: #000000; stroke-width: 0.5"/>
   </g>
   <g id="line2d_73">
    <path d="M 7.2 102.400435 
L 446.4 102.400435 
" clip-path="url(#p0d32de99aa)" style="fill: none; stroke-dasharray: 0.5,0.825; stroke-dashoffset: 0; stroke: #000000; stroke-width: 0.5"/>
   </g>
   <g id="line2d_74">
    <path d="M 7.2 88.911401 
L 446.4 88.911401 
" clip-path="url(#p0d32de99aa)" style="fill: none; stroke-dasharray: 0.5,0.825; stroke-dashoffset: 0; stroke: #000000; stroke-width: 0.5"/>
   </g>
   <g id="line2d_75">
    <path d="M 7.2 75.422367 
L 446.4 75.422367 
" clip-path="url(#p0d32de99aa)" style="fill: none; stroke-dasharray: 0.5,0.825; stroke-dashoffset: 0; stroke: #000000; stroke-width: 0.5"/>
   </g>
   <g id="line2d_76">
    <path d="M 7.2 61.933332 
L 446.4 61.933332 
" clip-path="url(#p0d32de99aa)" style="fill: none; stroke-dasharray: 0.5,0.825; stroke-dashoffset: 0; stroke: #000000; stroke-width: 0.5"/>
   </g>
   <g id="line2d_77">
    <path d="M 7.2 48.444298 
L 446.4 48.444298 
" clip-path="url(#p0d32de99aa)" style="fill: none; stroke-dasharray: 0.5,0.825; stroke-dashoffset: 0; stroke: #000000; stroke-width: 0.5"/>
   </g>
   <g id="line2d_78">
    <path d="M 7.2 34.955263 
L 446.4 34.955263 
" clip-path="url(#p0d32de99aa)" style="fill: none; stroke-dasharray: 0.5,0.825; stroke-dashoffset: 0; stroke: #000000; stroke-width: 0.5"/>
   </g>
   <g id="line2d_79">
    <path d="M 7.2 21.466229 
L 446.4 21.466229 
" clip-path="url(#p0d32de99aa)" style="fill: none; stroke-dasharray: 0.5,0.825; stroke-dashoffset: 0; stroke: #000000; stroke-width: 0.5"/>
   </g>
   <g id="line2d_80">
    <path d="M 15.646154 331.2 
L 15.646154 7.2 
" clip-path="url(#p0d32de99aa)" style="fill: none; stroke-dasharray: 0.5,0.825; stroke-dashoffset: 0; stroke: #000000; stroke-width: 0.5"/>
   </g>
   <g id="line2d_81">
    <path d="M 52.368562 331.2 
L 52.368562 7.2 
" clip-path="url(#p0d32de99aa)" style="fill: none; stroke-dasharray: 0.5,0.825; stroke-dashoffset: 0; stroke: #000000; stroke-width: 0.5"/>
   </g>
   <g id="line2d_82">
    <path d="M 89.09097 331.2 
L 89.09097 7.2 
" clip-path="url(#p0d32de99aa)" style="fill: none; stroke-dasharray: 0.5,0.825; stroke-dashoffset: 0; stroke: #000000; stroke-width: 0.5"/>
   </g>
   <g id="line2d_83">
    <path d="M 125.813378 331.2 
L 125.813378 7.2 
" clip-path="url(#p0d32de99aa)" style="fill: none; stroke-dasharray: 0.5,0.825; stroke-dashoffset: 0; stroke: #000000; stroke-width: 0.5"/>
   </g>
   <g id="line2d_84">
    <path d="M 162.535786 331.2 
L 162.535786 7.2 
" clip-path="url(#p0d32de99aa)" style="fill: none; stroke-dasharray: 0.5,0.825; stroke-dashoffset: 0; stroke: #000000; stroke-width: 0.5"/>
   </g>
   <g id="line2d_85">
    <path d="M 199.258194 331.2 
L 199.258194 7.2 
" clip-path="url(#p0d32de99aa)" style="fill: none; stroke-dasharray: 0.5,0.825; stroke-dashoffset: 0; stroke: #000000; stroke-width: 0.5"/>
   </g>
   <g id="line2d_86">
    <path d="M 235.980602 331.2 
L 235.980602 7.2 
" clip-path="url(#p0d32de99aa)" style="fill: none; stroke-dasharray: 0.5,0.825; stroke-dashoffset: 0; stroke: #000000; stroke-width: 0.5"/>
   </g>
   <g id="line2d_87">
    <path d="M 272.70301 331.2 
L 272.70301 7.2 
" clip-path="url(#p0d32de99aa)" style="fill: none; stroke-dasharray: 0.5,0.825; stroke-dashoffset: 0; stroke: #000000; stroke-width: 0.5"/>
   </g>
   <g id="line2d_88">
    <path d="M 309.425418 331.2 
L 309.425418 7.2 
" clip-path="url(#p0d32de99aa)" style="fill: none; stroke-dasharray: 0.5,0.825; stroke-dashoffset: 0; stroke: #000000; stroke-width: 0.5"/>
   </g>
   <g id="line2d_89">
    <path d="M 346.147826 331.2 
L 346.147826 7.2 
" clip-path="url(#p0d32de99aa)" style="fill: none; stroke-dasharray: 0.5,0.825; stroke-dashoffset: 0; stroke: #000000; stroke-width: 0.5"/>
   </g>
   <g id="line2d_90">
    <path d="M 382.870234 331.2 
L 382.870234 7.2 
" clip-path="url(#p0d32de99aa)" style="fill: none; stroke-dasharray: 0.5,0.825; stroke-dashoffset: 0; stroke: #000000; stroke-width: 0.5"/>
   </g>
   <g id="line2d_91">
    <path d="M 419.592642 331.2 
L 419.592642 7.2 
" clip-path="url(#p0d32de99aa)" style="fill: none; stroke-dasharray: 0.5,0.825; stroke-dashoffset: 0; stroke: #000000; stroke-width: 0.5"/>
   </g>
   <g id="patch_4">
    <path d="M 125.813378 331.2 
L 125.813378 7.2 
" style="fill: none; stroke: #000000; stroke-width: 0.8; stroke-linejoin: miter; stroke-linecap: square"/>
   </g>
   <g id="patch_5">
    <path d="M 7.2 156.356573 
L 446.4 156.356573 
" style="fill: none; stroke: #000000; stroke-width: 0.8; stroke-linejoin: miter; stroke-linecap: square"/>
   </g>
  </g>
 </g>
 <defs>
  <clipPath id="p0d32de99aa">
   <rect x="7.2" y="7.2" width="439.2" height="324"/>
  </clipPath>
 </defs>
</svg>
