<?xml version="1.0" encoding="utf-8" standalone="no"?>
<!DOCTYPE svg PUBLIC "-//W3C//DTD SVG 1.1//EN"
  "http://www.w3.org/Graphics/SVG/1.1/DTD/svg11.dtd">
<svg xmlns:xlink="http://www.w3.org/1999/xlink" width="453.6pt" height="338.4pt" viewBox="0 0 453.6 338.4" xmlns="http://www.w3.org/2000/svg" version="1.1">
 <metadata>
  <rdf:RDF xmlns:dc="http://purl.org/dc/elements/1.1/" xmlns:cc="http://creativecommons.org/ns#" xmlns:rdf="http://www.w3.org/1999/02/22-rdf-syntax-ns#">
   <cc:Work>
    <dc:type rdf:resource="http://purl.org/dc/dcmitype/StillImage"/>
    <dc:date>2026-05-27T12:45:00.794760</dc:date>
    <dc:format>image/svg+xml</dc:format>
    <dc:creator>
     <cc:Agent>
      <dc:title>Matplotlib v3.10.5, https://matplotlib.org/</dc:title>
     </cc:Agent>
    </dc:creator>
   </cc:Work>
  </rdf:RDF>
 </metadata>
 <defs>
  <style type="text/css">*{stroke-linejoin: round; stroke-linecap: butt}</style>
 </defs>
 <g id="figure_1">
  <g id="patch_1">
   <path d="M 0 338.4 
L 453.6 338.4 
L 453.6 0 
L 0 0 
z
" style="fill: #ffffff"/>
  </g>
  <g id="axes_1">
   <g id="patch_2">
    <path d="M 7.2 331.2 
L 446.4 331.2 
L 446.4 7.2 
L 7.2 7.2 
z
" style="fill: #ffffff"/>
   </g>
   <g id="PathCollection_1">
    <path d="M 272.70301 160.229699 
C 273.730137 160.229699 274.715334 159.821617 275.441623 159.095328 
C 276.167911 158.36904 276.575993 157.383843 276.575993 156.356715 
C 276.575993 155.329588 276.167911 154.344391 275.441623 153.618103 
C 274.715334 152.891814 273.730137 152.483732 272.70301 152.483732 
C 271.675883 152.483732 270.690686 152.891814 269.964397 153.618103 
C 269.238109 154.344391 268.830027 155.329588 268.830027 156.356715 
C 268.830027 157.383843 269.238109 158.36904 269.964397 159.095328 
C 270.690686 159.821617 271.675883 160.229699 272.70301 160.229699 
z
" clip-path="url(#pb7ed4b3f3e)" style="fill: #ff0000"/>
   </g>
   <g id="PathCollection_2">
    <path d="M 272.70301 254.653033 
C 273.730137 254.653033 274.715334 254.244951 275.441623 253.518663 
C 276.167911 252.792374 276.575993 251.807177 276.575993 250.78005 
C 276.575993 249.752923 276.167911 248.767726 275.441623 248.041437 
C 274.715334 247.315149 273.730137 246.907067 272.70301 246.907067 
C 271.675883 246.907067 270.690686 247.315149 269.964397 248.041437 
C 269.238109 248.767726 268.830027 249.752923 268.830027 250.78005 
C 268.830027 251.807177 269.238109 252.792374 269.964397 253.518663 
C 270.690686 254.244951 271.675883 254.653033 272.70301 254.653033 
z
" clip-path="url(#pb7ed4b3f3e)" style="fill: #008000"/>
   </g>
   <g id="matplotlib.axis_1">
    <g id="xtick_1">
     <g id="line2d_1">
      <defs>
       <path id="m608655e554" d="M 0 0 
L 0 3.5 
" style="stroke: #000000; stroke-width: 0.8"/>
      </defs>
      <g>
       <use xlink:href="#m608655e554" x="52.368562" y="156.356715" style="stroke: #000000; stroke-width: 0.8"/>
      </g>
     </g>
     <g id="text_1">
      <!-- −1 -->
      <g transform="translate(44.997468 170.955153) scale(0.1 -0.1)">
       <defs>
        <path id="DejaVuSans-2212" d="M 678 2272 
L 4684 2272 
L 4684 1741 
L 678 1741 
L 678 2272 
z
" transform="scale(0.015625)"/>
        <path id="DejaVuSans-31" d="M 794 531 
L 1825 531 
L 1825 4091 
L 703 3866 
L 703 4441 
L 1819 4666 
L 2450 4666 
L 2450 531 
L 3481 531 
L 3481 0 
L 794 0 
L 794 531 
z
" transform="scale(0.015625)"/>
       </defs>
       <use xlink:href="#DejaVuSans-2212"/>
       <use xlink:href="#DejaVuSans-31" transform="translate(83.789062 0)"/>
      </g>
     </g>
    </g>
    <g id="xtick_2">
     <g id="line2d_2">
      <g>
       <use xlink:href="#m608655e554" x="125.813378" y="156.356715" style="stroke: #000000; stroke-width: 0.8"/>
      </g>
     </g>
    </g>
    <g id="xtick_3">
     <g id="line2d_3">
      <g>
       <use xlink:href="#m608655e554" x="199.258194" y="156.356715" style="stroke: #000000; stroke-width: 0.8"/>
      </g>
     </g>
     <g id="text_2">
      <!-- 1 -->
      <g transform="translate(196.076944 170.955153) scale(0.1 -0.1)">
       <use xlink:href="#DejaVuSans-31"/>
      </g>
     </g>
    </g>
    <g id="xtick_4">
     <g id="line2d_4">
      <g>
       <use xlink:href="#m608655e554" x="272.70301" y="156.356715" style="stroke: #000000; stroke-width: 0.8"/>
      </g>
     </g>
     <g id="text_3">
      <!-- 2 -->
      <g transform="translate(269.52176 170.955153) scale(0.1 -0.1)">
       <defs>
        <path id="DejaVuSans-32" d="M 1228 531 
L 3431 531 
L 3431 0 
L 469 0 
L 469 531 
Q 828 903 1448 1529 
Q 2069 2156 2228 2338 
Q 2531 2678 2651 2914 
Q 2772 3150 2772 3378 
Q 2772 3750 2511 3984 
Q 2250 4219 1831 4219 
Q 1534 4219 1204 4116 
Q 875 4013 500 3803 
L 500 4441 
Q 881 4594 1212 4672 
Q 1544 4750 1819 4750 
Q 2544 4750 2975 4387 
Q 3406 4025 3406 3419 
Q 3406 3131 3298 2873 
Q 3191 2616 2906 2266 
Q 2828 2175 2409 1742 
Q 1991 1309 1228 531 
z
" transform="scale(0.015625)"/>
       </defs>
       <use xlink:href="#DejaVuSans-32"/>
      </g>
     </g>
    </g>
    <g id="xtick_5">
     <g id="line2d_5">
      <g>
       <use xlink:href="#m608655e554" x="346.147826" y="156.356715" style="stroke: #000000; stroke-width: 0.8"/>
      </g>
     </g>
     <g id="text_4">
      <!-- 3 -->
      <g transform="translate(342.966576 170.955153) scale(0.1 -0.1)">
       <defs>
        <path id="DejaVuSans-33" d="M 2597 2516 
Q 3050 2419 3304 2112 
Q 3559 1806 3559 1356 
Q 3559 666 3084 287 
Q 2609 -91 1734 -91 
Q 1441 -91 1130 -33 
Q 819 25 488 141 
L 488 750 
Q 750 597 1062 519 
Q 1375 441 1716 441 
Q 2309 441 2620 675 
Q 2931 909 2931 1356 
Q 2931 1769 2642 2001 
Q 2353 2234 1838 2234 
L 1294 2234 
L 1294 2753 
L 1863 2753 
Q 2328 2753 2575 2939 
Q 2822 3125 2822 3475 
Q 2822 3834 2567 4026 
Q 2313 4219 1838 4219 
Q 1578 4219 1281 4162 
Q 984 4106 628 3988 
L 628 4550 
Q 988 4650 1302 4700 
Q 1616 4750 1894 4750 
Q 2613 4750 3031 4423 
Q 3450 4097 3450 3541 
Q 3450 3153 3228 2886 
Q 3006 2619 2597 2516 
z
" transform="scale(0.015625)"/>
       </defs>
       <use xlink:href="#DejaVuSans-33"/>
      </g>
     </g>
    </g>
    <g id="xtick_6">
     <g id="line2d_6">
      <g>
       <use xlink:href="#m608655e554" x="419.592642" y="156.356715" style="stroke: #000000; stroke-width: 0.8"/>
      </g>
     </g>
     <g id="text_5">
      <!-- 4 -->
      <g transform="translate(416.411392 170.955153) scale(0.1 -0.1)">
       <defs>
        <path id="DejaVuSans-34" d="M 2419 4116 
L 825 1625 
L 2419 1625 
L 2419 4116 
z
M 2253 4666 
L 3047 4666 
L 3047 1625 
L 3713 1625 
L 3713 1100 
L 3047 1100 
L 3047 0 
L 2419 0 
L 2419 1100 
L 313 1100 
L 313 1709 
L 2253 4666 
z
" transform="scale(0.015625)"/>
       </defs>
       <use xlink:href="#DejaVuSans-34"/>
      </g>
     </g>
    </g>
    <g id="xtick_7">
     <g id="line2d_7">
      <defs>
       <path id="m1cd6faeaff" d="M 0 0 
L 0 2 
" style="stroke: #000000; stroke-width: 0.6"/>
      </defs>
      <g>
       <use xlink:href="#m1cd6faeaff" x="8.301672" y="156.356715" style="stroke: #000000; stroke-width: 0.6"/>
      </g>
     </g>
    </g>
    <g id="xtick_8">
     <g id="line2d_8">
      <g>
       <use xlink:href="#m1cd6faeaff" x="22.990635" y="156.356715" style="stroke: #000000; stroke-width: 0.6"/>
      </g>
     </g>
    </g>
    <g id="xtick_9">
     <g id="line2d_9">
      <g>
       <use xlink:href="#m1cd6faeaff" x="37.679599" y="156.356715" style="stroke: #000000; stroke-width: 0.6"/>
      </g>
     </g>
    </g>
    <g id="xtick_10">
     <g id="line2d_10">
      <g>
       <use xlink:href="#m1cd6faeaff" x="67.057525" y="156.356715" style="stroke: #000000; stroke-width: 0.6"/>
      </g>
     </g>
    </g>
    <g id="xtick_11">
     <g id="line2d_11">
      <g>
       <use xlink:href="#m1cd6faeaff" x="81.746488" y="156.356715" style="stroke: #000000; stroke-width: 0.6"/>
      </g>
     </g>
    </g>
    <g id="xtick_12">
     <g id="line2d_12">
      <g>
       <use xlink:href="#m1cd6faeaff" x="96.435452" y="156.356715" style="stroke: #000000; stroke-width: 0.6"/>
      </g>
     </g>
    </g>
    <g id="xtick_13">
     <g id="line2d_13">
      <g>
       <use xlink:href="#m1cd6faeaff" x="111.124415" y="156.356715" style="stroke: #000000; stroke-width: 0.6"/>
      </g>
     </g>
    </g>
    <g id="xtick_14">
     <g id="line2d_14">
      <g>
       <use xlink:href="#m1cd6faeaff" x="140.502341" y="156.356715" style="stroke: #000000; stroke-width: 0.6"/>
      </g>
     </g>
    </g>
    <g id="xtick_15">
     <g id="line2d_15">
      <g>
       <use xlink:href="#m1cd6faeaff" x="155.191304" y="156.356715" style="stroke: #000000; stroke-width: 0.6"/>
      </g>
     </g>
    </g>
    <g id="xtick_16">
     <g id="line2d_16">
      <g>
       <use xlink:href="#m1cd6faeaff" x="169.880268" y="156.356715" style="stroke: #000000; stroke-width: 0.6"/>
      </g>
     </g>
    </g>
    <g id="xtick_17">
     <g id="line2d_17">
      <g>
       <use xlink:href="#m1cd6faeaff" x="184.569231" y="156.356715" style="stroke: #000000; stroke-width: 0.6"/>
      </g>
     </g>
    </g>
    <g id="xtick_18">
     <g id="line2d_18">
      <g>
       <use xlink:href="#m1cd6faeaff" x="213.947157" y="156.356715" style="stroke: #000000; stroke-width: 0.6"/>
      </g>
     </g>
    </g>
    <g id="xtick_19">
     <g id="line2d_19">
      <g>
       <use xlink:href="#m1cd6faeaff" x="228.63612" y="156.356715" style="stroke: #000000; stroke-width: 0.6"/>
      </g>
     </g>
    </g>
    <g id="xtick_20">
     <g id="line2d_20">
      <g>
       <use xlink:href="#m1cd6faeaff" x="243.325084" y="156.356715" style="stroke: #000000; stroke-width: 0.6"/>
      </g>
     </g>
    </g>
    <g id="xtick_21">
     <g id="line2d_21">
      <g>
       <use xlink:href="#m1cd6faeaff" x="258.014047" y="156.356715" style="stroke: #000000; stroke-width: 0.6"/>
      </g>
     </g>
    </g>
    <g id="xtick_22">
     <g id="line2d_22">
      <g>
       <use xlink:href="#m1cd6faeaff" x="287.391973" y="156.356715" style="stroke: #000000; stroke-width: 0.6"/>
      </g>
     </g>
    </g>
    <g id="xtick_23">
     <g id="line2d_23">
      <g>
       <use xlink:href="#m1cd6faeaff" x="302.080936" y="156.356715" style="stroke: #000000; stroke-width: 0.6"/>
      </g>
     </g>
    </g>
    <g id="xtick_24">
     <g id="line2d_24">
      <g>
       <use xlink:href="#m1cd6faeaff" x="316.7699" y="156.356715" style="stroke: #000000; stroke-width: 0.6"/>
      </g>
     </g>
    </g>
    <g id="xtick_25">
     <g id="line2d_25">
      <g>
       <use xlink:href="#m1cd6faeaff" x="331.458863" y="156.356715" style="stroke: #000000; stroke-width: 0.6"/>
      </g>
     </g>
    </g>
    <g id="xtick_26">
     <g id="line2d_26">
      <g>
       <use xlink:href="#m1cd6faeaff" x="360.836789" y="156.356715" style="stroke: #000000; stroke-width: 0.6"/>
      </g>
     </g>
    </g>
    <g id="xtick_27">
     <g id="line2d_27">
      <g>
       <use xlink:href="#m1cd6faeaff" x="375.525753" y="156.356715" style="stroke: #000000; stroke-width: 0.6"/>
      </g>
     </g>
    </g>
    <g id="xtick_28">
     <g id="line2d_28">
      <g>
       <use xlink:href="#m1cd6faeaff" x="390.214716" y="156.356715" style="stroke: #000000; stroke-width: 0.6"/>
      </g>
     </g>
    </g>
    <g id="xtick_29">
     <g id="line2d_29">
      <g>
       <use xlink:href="#m1cd6faeaff" x="404.903679" y="156.356715" style="stroke: #000000; stroke-width: 0.6"/>
      </g>
     </g>
    </g>
    <g id="xtick_30">
     <g id="line2d_30">
      <g>
       <use xlink:href="#m1cd6faeaff" x="434.281605" y="156.356715" style="stroke: #000000; stroke-width: 0.6"/>
      </g>
     </g>
    </g>
   </g>
   <g id="matplotlib.axis_2">
    <g id="ytick_1">
     <g id="line2d_31">
      <defs>
       <path id="m1501b022e5" d="M 0 0 
L -3.5 0 
" style="stroke: #000000; stroke-width: 0.8"/>
      </defs>
      <g>
       <use xlink:href="#m1501b022e5" x="125.813378" y="291.247193" style="stroke: #000000; stroke-width: 0.8"/>
      </g>
     </g>
     <g id="text_6">
      <!-- −20 -->
      <g transform="translate(97.70869 295.046412) scale(0.1 -0.1)">
       <defs>
        <path id="DejaVuSans-30" d="M 2034 4250 
Q 1547 4250 1301 3770 
Q 1056 3291 1056 2328 
Q 1056 1369 1301 889 
Q 1547 409 2034 409 
Q 2525 409 2770 889 
Q 3016 1369 3016 2328 
Q 3016 3291 2770 3770 
Q 2525 4250 2034 4250 
z
M 2034 4750 
Q 2819 4750 3233 4129 
Q 3647 3509 3647 2328 
Q 3647 1150 3233 529 
Q 2819 -91 2034 -91 
Q 1250 -91 836 529 
Q 422 1150 422 2328 
Q 422 3509 836 4129 
Q 1250 4750 2034 4750 
z
" transform="scale(0.015625)"/>
       </defs>
       <use xlink:href="#DejaVuSans-2212"/>
       <use xlink:href="#DejaVuSans-32" transform="translate(83.789062 0)"/>
       <use xlink:href="#DejaVuSans-30" transform="translate(147.412109 0)"/>
      </g>
     </g>
    </g>
    <g id="ytick_2">
     <g id="line2d_32">
      <g>
       <use xlink:href="#m1501b022e5" x="125.813378" y="223.801954" style="stroke: #000000; stroke-width: 0.8"/>
      </g>
     </g>
     <g id="text_7">
      <!-- −10 -->
      <g transform="translate(97.70869 227.601173) scale(0.1 -0.1)">
       <use xlink:href="#DejaVuSans-2212"/>
       <use xlink:href="#DejaVuSans-31" transform="translate(83.789062 0)"/>
       <use xlink:href="#DejaVuSans-30" transform="translate(147.412109 0)"/>
      </g>
     </g>
    </g>
    <g id="ytick_3">
     <g id="line2d_33">
      <g>
       <use xlink:href="#m1501b022e5" x="125.813378" y="156.356715" style="stroke: #000000; stroke-width: 0.8"/>
      </g>
     </g>
    </g>
    <g id="ytick_4">
     <g id="line2d_34">
      <g>
       <use xlink:href="#m1501b022e5" x="125.813378" y="88.911476" style="stroke: #000000; stroke-width: 0.8"/>
      </g>
     </g>
     <g id="text_8">
      <!-- 10 -->
      <g transform="translate(106.088378 92.710695) scale(0.1 -0.1)">
       <use xlink:href="#DejaVuSans-31"/>
       <use xlink:href="#DejaVuSans-30" transform="translate(63.623047 0)"/>
      </g>
     </g>
    </g>
    <g id="ytick_5">
     <g id="line2d_35">
      <g>
       <use xlink:href="#m1501b022e5" x="125.813378" y="21.466237" style="stroke: #000000; stroke-width: 0.8"/>
      </g>
     </g>
     <g id="text_9">
      <!-- 20 -->
      <g transform="translate(106.088378 25.265456) scale(0.1 -0.1)">
       <use xlink:href="#DejaVuSans-32"/>
       <use xlink:href="#DejaVuSans-30" transform="translate(63.623047 0)"/>
      </g>
     </g>
    </g>
    <g id="ytick_6">
     <g id="line2d_36">
      <defs>
       <path id="m03c3ed6d93" d="M 0 0 
L -2 0 
" style="stroke: #000000; stroke-width: 0.6"/>
      </defs>
      <g>
       <use xlink:href="#m03c3ed6d93" x="125.813378" y="318.225289" style="stroke: #000000; stroke-width: 0.6"/>
      </g>
     </g>
    </g>
    <g id="ytick_7">
     <g id="line2d_37">
      <g>
       <use xlink:href="#m03c3ed6d93" x="125.813378" y="304.736241" style="stroke: #000000; stroke-width: 0.6"/>
      </g>
     </g>
    </g>
    <g id="ytick_8">
     <g id="line2d_38">
      <g>
       <use xlink:href="#m03c3ed6d93" x="125.813378" y="277.758146" style="stroke: #000000; stroke-width: 0.6"/>
      </g>
     </g>
    </g>
    <g id="ytick_9">
     <g id="line2d_39">
      <g>
       <use xlink:href="#m03c3ed6d93" x="125.813378" y="264.269098" style="stroke: #000000; stroke-width: 0.6"/>
      </g>
     </g>
    </g>
    <g id="ytick_10">
     <g id="line2d_40">
      <g>
       <use xlink:href="#m03c3ed6d93" x="125.813378" y="250.78005" style="stroke: #000000; stroke-width: 0.6"/>
      </g>
     </g>
    </g>
    <g id="ytick_11">
     <g id="line2d_41">
      <g>
       <use xlink:href="#m03c3ed6d93" x="125.813378" y="237.291002" style="stroke: #000000; stroke-width: 0.6"/>
      </g>
     </g>
    </g>
    <g id="ytick_12">
     <g id="line2d_42">
      <g>
       <use xlink:href="#m03c3ed6d93" x="125.813378" y="210.312907" style="stroke: #000000; stroke-width: 0.6"/>
      </g>
     </g>
    </g>
    <g id="ytick_13">
     <g id="line2d_43">
      <g>
       <use xlink:href="#m03c3ed6d93" x="125.813378" y="196.823859" style="stroke: #000000; stroke-width: 0.6"/>
      </g>
     </g>
    </g>
    <g id="ytick_14">
     <g id="line2d_44">
      <g>
       <use xlink:href="#m03c3ed6d93" x="125.813378" y="183.334811" style="stroke: #000000; stroke-width: 0.6"/>
      </g>
     </g>
    </g>
    <g id="ytick_15">
     <g id="line2d_45">
      <g>
       <use xlink:href="#m03c3ed6d93" x="125.813378" y="169.845763" style="stroke: #000000; stroke-width: 0.6"/>
      </g>
     </g>
    </g>
    <g id="ytick_16">
     <g id="line2d_46">
      <g>
       <use xlink:href="#m03c3ed6d93" x="125.813378" y="142.867668" style="stroke: #000000; stroke-width: 0.6"/>
      </g>
     </g>
    </g>
    <g id="ytick_17">
     <g id="line2d_47">
      <g>
       <use xlink:href="#m03c3ed6d93" x="125.813378" y="129.37862" style="stroke: #000000; stroke-width: 0.6"/>
      </g>
     </g>
    </g>
    <g id="ytick_18">
     <g id="line2d_48">
      <g>
       <use xlink:href="#m03c3ed6d93" x="125.813378" y="115.889572" style="stroke: #000000; stroke-width: 0.6"/>
      </g>
     </g>
    </g>
    <g id="ytick_19">
     <g id="line2d_49">
      <g>
       <use xlink:href="#m03c3ed6d93" x="125.813378" y="102.400524" style="stroke: #000000; stroke-width: 0.6"/>
      </g>
     </g>
    </g>
    <g id="ytick_20">
     <g id="line2d_50">
      <g>
       <use xlink:href="#m03c3ed6d93" x="125.813378" y="75.422428" style="stroke: #000000; stroke-width: 0.6"/>
      </g>
     </g>
    </g>
    <g id="ytick_21">
     <g id="line2d_51">
      <g>
       <use xlink:href="#m03c3ed6d93" x="125.813378" y="61.933381" style="stroke: #000000; stroke-width: 0.6"/>
      </g>
     </g>
    </g>
    <g id="ytick_22">
     <g id="line2d_52">
      <g>
       <use xlink:href="#m03c3ed6d93" x="125.813378" y="48.444333" style="stroke: #000000; stroke-width: 0.6"/>
      </g>
     </g>
    </g>
    <g id="ytick_23">
     <g id="line2d_53">
      <g>
       <use xlink:href="#m03c3ed6d93" x="125.813378" y="34.955285" style="stroke: #000000; stroke-width: 0.6"/>
      </g>
     </g>
    </g>
    <g id="ytick_24">
     <g id="line2d_54">
      <g>
       <use xlink:href="#m03c3ed6d93" x="125.813378" y="7.977189" style="stroke: #000000; stroke-width: 0.6"/>
      </g>
     </g>
    </g>
   </g>
   <g id="line2d_55">
    <path d="M 15.646154 17.672442 
L 18.945939 29.522116 
L 22.359175 40.915383 
L 25.568136 50.860588 
L 28.775762 60.09244 
L 32.130904 69.024455 
L 35.11365 76.371398 
L 38.154043 83.311621 
L 41.121903 89.576148 
L 44.336889 95.820771 
L 47.477876 101.404783 
L 50.462595 106.261908 
L 53.472346 110.739599 
L 56.275681 114.550273 
L 58.980579 117.915061 
L 61.914074 121.236099 
L 64.945358 124.329327 
L 68.033971 127.148709 
L 71.103044 129.639349 
L 74.039025 131.751216 
L 76.940695 133.595987 
L 79.921059 135.257645 
L 83.184767 136.827119 
L 86.232406 138.076075 
L 89.631671 139.244933 
L 92.917229 140.17205 
L 96.628968 141.00681 
L 100.511286 141.669611 
L 105.278818 142.236817 
L 110.325477 142.601339 
L 116.98404 142.819387 
L 126.594782 142.8677 
L 136.878792 142.956456 
L 143.251087 143.207309 
L 148.807218 143.630741 
L 154.285832 144.287149 
L 158.517549 144.984476 
L 162.788639 145.876807 
L 167.308726 147.045918 
L 171.605304 148.387208 
L 175.749509 149.905872 
L 179.697153 151.567339 
L 183.847154 153.548192 
L 187.775595 155.650671 
L 191.650513 157.94568 
L 195.870326 160.69842 
L 200.322926 163.891948 
L 204.23002 166.93909 
L 208.534502 170.559908 
L 212.916514 174.526756 
L 217.643032 179.11688 
L 222.285354 183.930922 
L 227.153192 189.291514 
L 232.622721 195.676454 
L 238.533541 202.975614 
L 244.921514 211.282791 
L 251.959329 220.866299 
L 259.028194 230.853691 
L 269.690978 246.356316 
L 286.267041 270.53188 
L 293.568351 280.774944 
L 299.19254 288.321197 
L 303.919254 294.354509 
L 308.515203 299.889928 
L 312.40792 304.279885 
L 316.598454 308.655489 
L 320.067159 311.969941 
L 323.806764 315.197412 
L 326.75774 317.468162 
L 329.418526 319.290531 
L 332.545019 321.14022 
L 335.388375 322.530903 
L 338.008748 323.551316 
L 340.675951 324.318052 
L 342.969145 324.746761 
L 345.142403 324.9472 
L 347.413644 324.933475 
L 349.706767 324.678572 
L 351.949989 324.185275 
L 354.193246 323.441119 
L 356.501896 322.403157 
L 358.675444 321.164188 
L 361.037665 319.519036 
L 363.395077 317.555703 
L 365.754943 315.256711 
L 368.020126 312.724783 
L 370.24175 309.921546 
L 372.667655 306.48633 
L 375.034701 302.745193 
L 377.582056 298.274657 
L 380.014161 293.56185 
L 382.555082 288.158543 
L 385.174409 282.058121 
L 387.74181 275.538489 
L 390.432754 268.111828 
L 393.178699 259.886342 
L 395.819538 251.338661 
L 398.774402 241.009157 
L 401.718599 229.885703 
L 404.636755 218.013767 
L 407.61022 205.020325 
L 410.751223 190.278663 
L 413.829935 174.781991 
L 416.990802 157.756494 
L 420.201074 139.269532 
L 423.578291 118.476856 
L 426.85774 96.922517 
L 430.235188 73.272427 
L 433.645006 47.851868 
L 437.036269 20.980472 
L 437.953846 13.430769 
L 437.953846 13.430769 
" clip-path="url(#pb7ed4b3f3e)" style="fill: none; stroke: #0000ff; stroke-linecap: square"/>
   </g>
   <g id="line2d_56">
    <path d="M 272.70301 156.356715 
L 272.70301 250.78005 
" clip-path="url(#pb7ed4b3f3e)" style="fill: none; stroke-dasharray: 1,1.65; stroke-dashoffset: 0; stroke: #008000"/>
   </g>
   <g id="line2d_57">
    <path d="M 7.2 331.714337 
L 446.4 331.714337 
" clip-path="url(#pb7ed4b3f3e)" style="fill: none; stroke-dasharray: 0.5,0.825; stroke-dashoffset: 0; stroke: #000000; stroke-width: 0.5"/>
   </g>
   <g id="line2d_58">
    <path d="M 7.2 318.225289 
L 446.4 318.225289 
" clip-path="url(#pb7ed4b3f3e)" style="fill: none; stroke-dasharray: 0.5,0.825; stroke-dashoffset: 0; stroke: #000000; stroke-width: 0.5"/>
   </g>
   <g id="line2d_59">
    <path d="M 7.2 304.736241 
L 446.4 304.736241 
" clip-path="url(#pb7ed4b3f3e)" style="fill: none; stroke-dasharray: 0.5,0.825; stroke-dashoffset: 0; stroke: #000000; stroke-width: 0.5"/>
   </g>
   <g id="line2d_60">
    <path d="M 7.2 291.247193 
L 446.4 291.247193 
" clip-path="url(#pb7ed4b3f3e)" style="fill: none; stroke-dasharray: 0.5,0.825; stroke-dashoffset: 0; stroke: #000000; stroke-width: 0.5"/>
   </g>
   <g id="line2d_61">
    <path d="M 7.2 277.758146 
L 446.4 277.758146 
" clip-path="url(#pb7ed4b3f3e)" style="fill: none; stroke-dasharray: 0.5,0.825; stroke-dashoffset: 0; stroke: #000000; stroke-width: 0.5"/>
   </g>
   <g id="line2d_62">
    <path d="M 7.2 264.269098 
L 446.4 264.269098 
" clip-path="url(#pb7ed4b3f3e)" style="fill: none; stroke-dasharray: 0.5,0.825; stroke-dashoffset: 0; stroke: #000000; stroke-width: 0.5"/>
   </g>
   <g id="line2d_63">
    <path d="M 7.2 250.78005 
L 446.4 250.78005 
" clip-path="url(#pb7ed4b3f3e)" style="fill: none; stroke-dasharray: 0.5,0.825; stroke-dashoffset: 0; stroke: #000000; stroke-width: 0.5"/>
   </g>
   <g id="line2d_64">
    <path d="M 7.2 237.291002 
L 446.4 237.291002 
" clip-path="url(#pb7ed4b3f3e)" style="fill: none; stroke-dasharray: 0.5,0.825; stroke-dashoffset: 0; stroke: #000000; stroke-width: 0.5"/>
   </g>
   <g id="line2d_65">
    <path d="M 7.2 223.801954 
L 446.4 223.801954 
" clip-path="url(#pb7ed4b3f3e)" style="fill: none; stroke-dasharray: 0.5,0.825; stroke-dashoffset: 0; stroke: #000000; stroke-width: 0.5"/>
   </g>
   <g id="line2d_66">
    <path d="M 7.2 210.312907 
L 446.4 210.312907 
" clip-path="url(#pb7ed4b3f3e)" style="fill: none; stroke-dasharray: 0.5,0.825; stroke-dashoffset: 0; stroke: #000000; stroke-width: 0.5"/>
   </g>
   <g id="line2d_67">
    <path d="M 7.2 196.823859 
L 446.4 196.823859 
" clip-path="url(#pb7ed4b3f3e)" style="fill: none; stroke-dasharray: 0.5,0.825; stroke-dashoffset: 0; stroke: #000000; stroke-width: 0.5"/>
   </g>
   <g id="line2d_68">
    <path d="M 7.2 183.334811 
L 446.4 183.334811 
" clip-path="url(#pb7ed4b3f3e)" style="fill: none; stroke-dasharray: 0.5,0.825; stroke-dashoffset: 0; stroke: #000000; stroke-width: 0.5"/>
   </g>
   <g id="line2d_69">
    <path d="M 7.2 169.845763 
L 446.4 169.845763 
" clip-path="url(#pb7ed4b3f3e)" style="fill: none; stroke-dasharray: 0.5,0.825; stroke-dashoffset: 0; stroke: #000000; stroke-width: 0.5"/>
   </g>
   <g id="line2d_70">
    <path d="M 7.2 156.356715 
L 446.4 156.356715 
" clip-path="url(#pb7ed4b3f3e)" style="fill: none; stroke-dasharray: 0.5,0.825; stroke-dashoffset: 0; stroke: #000000; stroke-width: 0.5"/>
   </g>
   <g id="line2d_71">
    <path d="M 7.2 142.867668 
L 446.4 142.867668 
" clip-path="url(#pb7ed4b3f3e)" style="fill: none; stroke-dasharray: 0.5,0.825; stroke-dashoffset: 0; stroke: #000000; stroke-width: 0.5"/>
   </g>
   <g id="line2d_72">
    <path d="M 7.2 129.37862 
L 446.4 129.37862 
" clip-path="url(#pb7ed4b3f3e)" style="fill: none; stroke-dasharray: 0.5,0.825; stroke-dashoffset: 0; stroke: #000000; stroke-width: 0.5"/>
   </g>
   <g id="line2d_73">
    <path d="M 7.2 115.889572 
L 446.4 115.889572 
" clip-path="url(#pb7ed4b3f3e)" style="fill: none; stroke-dasharray: 0.5,0.825; stroke-dashoffset: 0; stroke: #000000; stroke-width: 0.5"/>
   </g>
   <g id="line2d_74">
    <path d="M 7.2 102.400524 
L 446.4 102.400524 
" clip-path="url(#pb7ed4b3f3e)" style="fill: none; stroke-dasharray: 0.5,0.825; stroke-dashoffset: 0; stroke: #000000; stroke-width: 0.5"/>
   </g>
   <g id="line2d_75">
    <path d="M 7.2 88.911476 
L 446.4 88.911476 
" clip-path="url(#pb7ed4b3f3e)" style="fill: none; stroke-dasharray: 0.5,0.825; stroke-dashoffset: 0; stroke: #000000; stroke-width: 0.5"/>
   </g>
   <g id="line2d_76">
    <path d="M 7.2 75.422428 
L 446.4 75.422428 
" clip-path="url(#pb7ed4b3f3e)" style="fill: none; stroke-dasharray: 0.5,0.825; stroke-dashoffset: 0; stroke: #000000; stroke-width: 0.5"/>
   </g>
   <g id="line2d_77">
    <path d="M 7.2 61.933381 
L 446.4 61.933381 
" clip-path="url(#pb7ed4b3f3e)" style="fill: none; stroke-dasharray: 0.5,0.825; stroke-dashoffset: 0; stroke: #000000; stroke-width: 0.5"/>
   </g>
   <g id="line2d_78">
    <path d="M 7.2 48.444333 
L 446.4 48.444333 
" clip-path="url(#pb7ed4b3f3e)" style="fill: none; stroke-dasharray: 0.5,0.825; stroke-dashoffset: 0; stroke: #000000; stroke-width: 0.5"/>
   </g>
   <g id="line2d_79">
    <path d="M 7.2 34.955285 
L 446.4 34.955285 
" clip-path="url(#pb7ed4b3f3e)" style="fill: none; stroke-dasharray: 0.5,0.825; stroke-dashoffset: 0; stroke: #000000; stroke-width: 0.5"/>
   </g>
   <g id="line2d_80">
    <path d="M 7.2 21.466237 
L 446.4 21.466237 
" clip-path="url(#pb7ed4b3f3e)" style="fill: none; stroke-dasharray: 0.5,0.825; stroke-dashoffset: 0; stroke: #000000; stroke-width: 0.5"/>
   </g>
   <g id="line2d_81">
    <path d="M 15.646154 331.2 
L 15.646154 7.2 
" clip-path="url(#pb7ed4b3f3e)" style="fill: none; stroke-dasharray: 0.5,0.825; stroke-dashoffset: 0; stroke: #000000; stroke-width: 0.5"/>
   </g>
   <g id="line2d_82">
    <path d="M 52.368562 331.2 
L 52.368562 7.2 
" clip-path="url(#pb7ed4b3f3e)" style="fill: none; stroke-dasharray: 0.5,0.825; stroke-dashoffset: 0; stroke: #000000; stroke-width: 0.5"/>
   </g>
   <g id="line2d_83">
    <path d="M 89.09097 331.2 
L 89.09097 7.2 
" clip-path="url(#pb7ed4b3f3e)" style="fill: none; stroke-dasharray: 0.5,0.825; stroke-dashoffset: 0; stroke: #000000; stroke-width: 0.5"/>
   </g>
   <g id="line2d_84">
    <path d="M 125.813378 331.2 
L 125.813378 7.2 
" clip-path="url(#pb7ed4b3f3e)" style="fill: none; stroke-dasharray: 0.5,0.825; stroke-dashoffset: 0; stroke: #000000; stroke-width: 0.5"/>
   </g>
   <g id="line2d_85">
    <path d="M 162.535786 331.2 
L 162.535786 7.2 
" clip-path="url(#pb7ed4b3f3e)" style="fill: none; stroke-dasharray: 0.5,0.825; stroke-dashoffset: 0; stroke: #000000; stroke-width: 0.5"/>
   </g>
   <g id="line2d_86">
    <path d="M 199.258194 331.2 
L 199.258194 7.2 
" clip-path="url(#pb7ed4b3f3e)" style="fill: none; stroke-dasharray: 0.5,0.825; stroke-dashoffset: 0; stroke: #000000; stroke-width: 0.5"/>
   </g>
   <g id="line2d_87">
    <path d="M 235.980602 331.2 
L 235.980602 7.2 
" clip-path="url(#pb7ed4b3f3e)" style="fill: none; stroke-dasharray: 0.5,0.825; stroke-dashoffset: 0; stroke: #000000; stroke-width: 0.5"/>
   </g>
   <g id="line2d_88">
    <path d="M 272.70301 331.2 
L 272.70301 7.2 
" clip-path="url(#pb7ed4b3f3e)" style="fill: none; stroke-dasharray: 0.5,0.825; stroke-dashoffset: 0; stroke: #000000; stroke-width: 0.5"/>
   </g>
   <g id="line2d_89">
    <path d="M 309.425418 331.2 
L 309.425418 7.2 
" clip-path="url(#pb7ed4b3f3e)" style="fill: none; stroke-dasharray: 0.5,0.825; stroke-dashoffset: 0; stroke: #000000; stroke-width: 0.5"/>
   </g>
   <g id="line2d_90">
    <path d="M 346.147826 331.2 
L 346.147826 7.2 
" clip-path="url(#pb7ed4b3f3e)" style="fill: none; stroke-dasharray: 0.5,0.825; stroke-dashoffset: 0; stroke: #000000; stroke-width: 0.5"/>
   </g>
   <g id="line2d_91">
    <path d="M 382.870234 331.2 
L 382.870234 7.2 
" clip-path="url(#pb7ed4b3f3e)" style="fill: none; stroke-dasharray: 0.5,0.825; stroke-dashoffset: 0; stroke: #000000; stroke-width: 0.5"/>
   </g>
   <g id="line2d_92">
    <path d="M 419.592642 331.2 
L 419.592642 7.2 
" clip-path="url(#pb7ed4b3f3e)" style="fill: none; stroke-dasharray: 0.5,0.825; stroke-dashoffset: 0; stroke: #000000; stroke-width: 0.5"/>
   </g>
   <g id="patch_3">
    <path d="M 125.813378 331.2 
L 125.813378 7.2 
" style="fill: none; stroke: #000000; stroke-width: 0.8; stroke-linejoin: miter; stroke-linecap: square"/>
   </g>
   <g id="patch_4">
    <path d="M 7.2 156.356715 
L 446.4 156.356715 
" style="fill: none; stroke: #000000; stroke-width: 0.8; stroke-linejoin: miter; stroke-linecap: square"/>
   </g>
  </g>
 </g>
 <defs>
  <clipPath id="pb7ed4b3f3e">
   <rect x="7.2" y="7.2" width="439.2" height="324"/>
  </clipPath>
 </defs>
</svg>
